<?xml version="1.0" standalone="no"?><!DOCTYPE svg PUBLIC "-//W3C//DTD SVG 1.1//EN" "http://www.w3.org/Graphics/SVG/1.1/DTD/svg11.dtd"><svg t="1695369640239" class="icon" viewBox="0 0 1024 1024" version="1.1" xmlns="http://www.w3.org/2000/svg" p-id="16180" xmlns:xlink="http://www.w3.org/1999/xlink"><path d="M535.36132813 90.125h0.02636718a15.02929689 15.02929689 0 0 1 15.02929688 15.02929689v813.66503904a15.02929689 15.02929689 0 0 1-15.02929688 15.02929688h-45.24609375a15.02929689 15.02929689 0 0 1-15.02929687-15.02929688V105.15429687a15.02929689 15.02929689 0 0 1 15.02929687-15.02929687h45.21972657z m-158.96777343 209.80371094h0.02636717a15.02929689 15.02929689 0 0 1 15.02929688 15.02929687v392.5546875a15.02929689 15.02929689 0 0 1-15.02929688 15.02929689H255.84277344a15.02929689 15.02929689 0 0 1-15.02929689-15.02929689V314.95800781a15.02929689 15.02929689 0 0 1 15.02929689-15.02929687h120.55078124z m391.73730468 0h0.02636718a15.02929689 15.02929689 0 0 1 15.02929687 15.02929687v392.5546875a15.02929689 15.02929689 0 0 1-15.02929687 15.02929689h-120.57714843a15.02929689 15.02929689 0 0 1-15.02929688-15.02929689V314.95800781a15.02929689 15.02929689 0 0 1 15.02929688-15.02929687h120.55078125z" p-id="16181" fill="#595959"></path></svg>