<?xml version="1.0" standalone="no"?><!DOCTYPE svg PUBLIC "-//W3C//DTD SVG 1.1//EN" "http://www.w3.org/Graphics/SVG/1.1/DTD/svg11.dtd"><svg t="1695375608538" class="icon" viewBox="0 0 1024 1024" version="1.1" xmlns="http://www.w3.org/2000/svg" p-id="16268" xmlns:xlink="http://www.w3.org/1999/xlink"><path d="M882.11651993 869.55605697l0 0.02317429a13.20934297 13.20934297 0 0 1-13.20934296 13.20934296L154.42076874 882.78857422a13.20934297 13.20934297 0 0 1-13.20934296-13.20934296l0-39.83659744a13.20934297 13.20934297 0 0 1 13.20934297-13.20934295L868.90717697 816.53329087a13.20934297 13.20934297 0 0 1 13.20934296 13.20934295l0 39.81342315zM882.78857422 194.2341919l0 0.02317428a13.20934297 13.20934297 0 0 1-13.20934297 13.20934295l-714.48640822 0a13.20934297 13.20934297 0 0 1-13.20934296-13.20934295L141.88348007 154.42076874a13.20934297 13.20934297 0 0 1 13.20934296-13.20934296L869.57923126 141.21142578A13.20934297 13.20934297 0 0 1 882.78857422 154.42076874l0 39.81342316z m-185.55650711 197.49126435l0 0.02317427a13.20934297 13.20934297 0 0 1-13.20934296 13.20934296L339.35157012 404.95797349a13.20934297 13.20934297 0 0 1-13.20934295-13.20934297L326.14222718 285.63357544a13.20934297 13.20934297 0 0 1 13.20934295-13.20934297L684.02272415 272.42423247a13.20934297 13.20934297 0 0 1 13.20934296 13.20934297l0 106.09188081z m0 344.62480544l0 0.02317428a13.20934297 13.20934297 0 0 1-13.20934296 13.20934296L339.35157013 749.58277893a13.20934297 13.20934297 0 0 1-13.20934296-13.20934296l1e-8-106.11505508a13.20934297 13.20934297 0 0 1 13.20934295-13.20934296L684.02272415 617.04903793a13.20934297 13.20934297 0 0 1 13.20934296 13.20934296l0 106.0918808z" p-id="16269" fill="#595959"></path></svg>