<?xml version="1.0" standalone="no"?><!DOCTYPE svg PUBLIC "-//W3C//DTD SVG 1.1//EN" "http://www.w3.org/Graphics/SVG/1.1/DTD/svg11.dtd"><svg t="1695375565053" class="icon" viewBox="0 0 1024 1024" version="1.1" xmlns="http://www.w3.org/2000/svg" p-id="16598" xmlns:xlink="http://www.w3.org/1999/xlink"><path d="M704.796875 639.22167969h0.02636719a15.02929688 15.02929688 0 0 1 15.02929687 15.02929687v120.8671875a15.02929688 15.02929688 0 0 1-15.02929687 15.02929688H309.42089844a15.02929688 15.02929688 0 0 1-15.02929688-15.02929688v-120.8671875a15.02929688 15.02929688 0 0 1 15.02929688-15.02929687h395.37597656z m0-241.07519532h0.02636719a15.02929688 15.02929688 0 0 1 15.02929687 15.02929688v120.8671875a15.02929688 15.02929688 0 0 1-15.02929687 15.02929687H309.42089844a15.02929688 15.02929688 0 0 1-15.02929688-15.02929687v-120.8671875a15.02929688 15.02929688 0 0 1 15.02929688-15.02929688h395.37597656z m214.02246094-167.40527343h0.02636718a15.02929688 15.02929688 0 0 1 15.02929688 15.02929687v45.90527344a15.02929688 15.02929688 0 0 1-15.02929688 15.02929687H105.18066406a15.02929688 15.02929688 0 0 1-15.02929687-15.02929687V245.77050781a15.02929688 15.02929688 0 0 1 15.02929687-15.02929687h813.63867188z" p-id="16599" fill="#595959"></path></svg>