<?xml version="1.0" standalone="no"?><!DOCTYPE svg PUBLIC "-//W3C//DTD SVG 1.1//EN" "http://www.w3.org/Graphics/SVG/1.1/DTD/svg11.dtd"><svg t="1695369964095" class="icon" viewBox="0 0 1024 1024" version="1.1" xmlns="http://www.w3.org/2000/svg" p-id="16334" xmlns:xlink="http://www.w3.org/1999/xlink"><path d="M869.55605697 141.88348007h0.02317429a13.20934297 13.20934297 0 0 1 13.20934296 13.20934296V869.57923126a13.20934297 13.20934297 0 0 1-13.20934296 13.20934296h-39.83659744a13.20934297 13.20934297 0 0 1-13.20934295-13.20934297V155.09282303a13.20934297 13.20934297 0 0 1 13.20934295-13.20934296h39.81342315zM194.2341919 141.21142578h0.02317428a13.20934297 13.20934297 0 0 1 13.20934295 13.20934297v714.48640822a13.20934297 13.20934297 0 0 1-13.20934295 13.20934296H154.42076874a13.20934297 13.20934297 0 0 1-13.20934296-13.20934296V154.42076874A13.20934297 13.20934297 0 0 1 154.42076874 141.21142578h39.81342316z m197.49126435 185.55650711h0.02317427a13.20934297 13.20934297 0 0 1 13.20934296 13.20934296V684.64842988a13.20934297 13.20934297 0 0 1-13.20934296 13.20934295H285.63357544a13.20934297 13.20934297 0 0 1-13.20934297-13.20934296V339.97727585a13.20934297 13.20934297 0 0 1 13.20934297-13.20934296h106.09188081z m344.62480544 0h0.02317428a13.20934297 13.20934297 0 0 1 13.20934296 13.20934296V684.64842988a13.20934297 13.20934297 0 0 1-13.20934296 13.20934295h-106.11505508a13.20934297 13.20934297 0 0 1-13.20934296-13.20934296V339.97727585a13.20934297 13.20934297 0 0 1 13.20934296-13.20934296h106.0918808z" p-id="16335" fill="#595959"></path></svg>