<?xml version="1.0" standalone="no"?><!DOCTYPE svg PUBLIC "-//W3C//DTD SVG 1.1//EN" "http://www.w3.org/Graphics/SVG/1.1/DTD/svg11.dtd"><svg t="1741923641273" class="icon" viewBox="0 0 1024 1024" version="1.1" xmlns="http://www.w3.org/2000/svg" p-id="74693" xmlns:xlink="http://www.w3.org/1999/xlink" width="1000" height="1000"><path d="M586.666667 405.333333v-170.666666c0-29.44-23.893333-53.333333-53.333334-53.333334h-341.333333c-29.44 0-53.333333 23.893333-53.333333 53.333334v170.666666c0 29.44 23.893333 53.333333 53.333333 53.333334h341.333333c29.44 0 53.333333-23.893333 53.333334-53.333334zM586.666667 797.866667v-187.733334c0-24.746667-20.053333-44.8-44.8-44.8H183.466667c-24.746667 0-44.8 20.053333-44.8 44.8v187.733334c0 24.746667 20.053333 44.8 44.8 44.8h358.4c24.746667 0 44.8-20.053333 44.8-44.8z m-63.957334-19.2H202.666667v-149.333334h320.042666v149.333334zM736 883.2V268.8a12.8 12.8 0 0 1 12.8-12.8h38.4a12.8 12.8 0 0 1 12.8 12.8v614.4a12.8 12.8 0 0 1-12.8 12.8h-38.4a12.8 12.8 0 0 1-12.8-12.8z" fill="#595959" p-id="74694"></path><path d="M778.24 141.653333l102.4 136.533334a12.8 12.8 0 0 1-10.24 20.48h-204.8a12.8 12.8 0 0 1-10.24-20.48l102.4-136.533334a12.8 12.8 0 0 1 20.48 0z" fill="#595959" p-id="74695"></path></svg>