<?xml version="1.0" standalone="no"?><!DOCTYPE svg PUBLIC "-//W3C//DTD SVG 1.1//EN" "http://www.w3.org/Graphics/SVG/1.1/DTD/svg11.dtd"><svg t="1741923202793" class="icon" viewBox="0 0 1024 1024" version="1.1" xmlns="http://www.w3.org/2000/svg" p-id="3520" xmlns:xlink="http://www.w3.org/1999/xlink" width="1000" height="1000"><path d="M78.769231 78.769231h78.769231v866.461538H78.769231z m472.615384 0h78.769231v866.461538H551.384615z" fill="#595959" p-id="3521"></path><path d="M78.769231 551.384615h315.076923a78.769231 78.769231 0 0 1 78.769231 78.769231v78.769231a78.769231 78.769231 0 0 1-78.769231 78.769231H78.769231V551.384615z m472.615384 0h315.076923a78.769231 78.769231 0 0 1 78.769231 78.769231v78.769231a78.769231 78.769231 0 0 1-78.769231 78.769231H551.384615V551.384615zM78.769231 236.307692h236.307692a78.769231 78.769231 0 0 1 78.769231 78.769231v78.769231a78.769231 78.769231 0 0 1-78.769231 78.769231H78.769231V236.307692z m472.615384 0h236.307693a78.769231 78.769231 0 0 1 78.76923 78.769231v78.769231a78.769231 78.769231 0 0 1-78.76923 78.769231H551.384615V236.307692z" fill="#595959" p-id="3522"></path></svg>