<?xml version="1.0" standalone="no"?><!DOCTYPE svg PUBLIC "-//W3C//DTD SVG 1.1//EN" "http://www.w3.org/Graphics/SVG/1.1/DTD/svg11.dtd"><svg t="1741923214929" class="icon" viewBox="0 0 1024 1024" version="1.1" xmlns="http://www.w3.org/2000/svg" p-id="4168" xmlns:xlink="http://www.w3.org/1999/xlink" width="1000" height="1000"><path d="M78.769231 78.769231h78.769231v866.461538H78.769231z m787.692307 0h78.769231v866.461538h-78.769231z" fill="#595959" p-id="4169"></path><path d="M78.769231 551.384615m78.769231 0l236.307692 0q78.769231 0 78.769231 78.769231l0 78.769231q0 78.769231-78.769231 78.769231l-236.307692 0q-78.769231 0-78.769231-78.769231l0-78.769231q0-78.769231 78.769231-78.769231Z" fill="#595959" p-id="4170"></path><path d="M78.769231 236.307692m78.769231 0l236.307692 0q78.769231 0 78.769231 78.769231l0 78.769231q0 78.769231-78.769231 78.769231l-236.307692 0q-78.769231 0-78.769231-78.769231l0-78.769231q0-78.769231 78.769231-78.769231Z" fill="#595959" p-id="4171"></path><path d="M551.384615 551.384615m78.769231 0l236.307692 0q78.769231 0 78.769231 78.769231l0 78.769231q0 78.769231-78.769231 78.769231l-236.307692 0q-78.769231 0-78.769231-78.769231l0-78.769231q0-78.769231 78.769231-78.769231Z" fill="#595959" p-id="4172"></path><path d="M551.384615 236.307692m78.769231 0l236.307692 0q78.769231 0 78.769231 78.769231l0 78.769231q0 78.769231-78.769231 78.769231l-236.307692 0q-78.769231 0-78.769231-78.769231l0-78.769231q0-78.769231 78.769231-78.769231Z" fill="#595959" p-id="4173"></path></svg>