<?xml version="1.0" standalone="no"?><!DOCTYPE svg PUBLIC "-//W3C//DTD SVG 1.1//EN" "http://www.w3.org/Graphics/SVG/1.1/DTD/svg11.dtd"><svg t="1695374490753" class="icon" viewBox="0 0 1024 1024" version="1.1" xmlns="http://www.w3.org/2000/svg" p-id="16373" xmlns:xlink="http://www.w3.org/1999/xlink"><path d="M661.333333 554.666667a42.666667 42.666667 0 0 1-42.666666 42.666666l-213.333334 0a42.666667 42.666667 0 0 1-42.666666-42.666666l0-85.333334a42.666667 42.666667 0 0 1 42.666666-42.666666l213.333334 0a42.666667 42.666667 0 0 1 42.666666 42.666666l0 85.333334zM661.333333 810.666667a42.666667 42.666667 0 0 1-42.666666 42.666666l-213.333334 0a42.666667 42.666667 0 0 1-42.666666-42.666666l0-85.333334a42.666667 42.666667 0 0 1 42.666666-42.666666l213.333334 0a42.666667 42.666667 0 0 1 42.666666 42.666666l0 85.333334z m-64-21.333334l0-42.666666-170.666666 0 0 42.666666 170.666666 0zM661.333333 298.666667a42.666667 42.666667 0 0 1-42.666666 42.666666l-213.333334 0a42.666667 42.666667 0 0 1-42.666666-42.666666L362.666667 213.333333a42.666667 42.666667 0 0 1 42.666666-42.666666l213.333334 0a42.666667 42.666667 0 0 1 42.666666 42.666666l0 85.333334zM597.333333 277.333333l0-42.666666-170.666666 0 0 42.666666 170.666666 0z" fill="#595959" p-id="16374"></path></svg>