<?xml version="1.0" standalone="no"?><!DOCTYPE svg PUBLIC "-//W3C//DTD SVG 1.1//EN" "http://www.w3.org/Graphics/SVG/1.1/DTD/svg11.dtd"><svg t="1695375428081" class="icon" viewBox="0 0 1024 1024" version="1.1" xmlns="http://www.w3.org/2000/svg" p-id="16208" xmlns:xlink="http://www.w3.org/1999/xlink"><path d="M933.875 535.36132813l0 0.02636718a15.02929689 15.02929689 0 0 1-15.02929688 15.02929688l-813.66503904 0a15.02929689 15.02929689 0 0 1-15.02929688-15.02929688l-1e-8-45.24609375a15.02929689 15.02929689 0 0 1 15.02929688-15.02929687L918.84570313 475.11230468a15.02929689 15.02929689 0 0 1 15.02929687 15.02929688l0 45.21972657z m-209.80371094-158.96777342l0 0.02636716a15.02929689 15.02929689 0 0 1-15.02929686 15.02929688l-392.55468751 0a15.02929689 15.02929689 0 0 1-15.02929689-15.02929688L301.4580078 255.84277344a15.02929689 15.02929689 0 0 1 15.02929689-15.02929689L709.04199219 240.81347655a15.02929689 15.02929689 0 0 1 15.02929687 15.02929689l0 120.55078124z m0 391.73730467l0 0.02636718a15.02929689 15.02929689 0 0 1-15.02929687 15.02929687l-392.5546875 0a15.02929689 15.02929689 0 0 1-15.02929689-15.02929687l0-120.57714843a15.02929689 15.02929689 0 0 1 15.02929689-15.02929688L709.0419922 632.55078125a15.02929689 15.02929689 0 0 1 15.02929686 15.02929688l0 120.55078125z" p-id="16209" fill="#e6e6e6"></path></svg>