<?xml version="1.0" standalone="no"?><!DOCTYPE svg PUBLIC "-//W3C//DTD SVG 1.1//EN" "http://www.w3.org/Graphics/SVG/1.1/DTD/svg11.dtd"><svg t="1695369674921" class="icon" viewBox="0 0 1024 1024" version="1.1" xmlns="http://www.w3.org/2000/svg" p-id="16375" xmlns:xlink="http://www.w3.org/1999/xlink"><path d="M639.24804687 324.92480469c0-8.2265625 6.67089844-14.89746094 14.89746094-14.89746094h119.390625c8.2265625 0 14.89746094 6.67089844 14.89746094 14.89746094v390.68261719a14.89746094 14.89746094 0 0 1-14.89746094 14.89746093h-119.390625a14.89746094 14.89746094 0 0 1-14.89746094-14.89746093V324.8984375z m-238.22753906 0c0-8.2265625 6.67089844-14.89746094 14.89746094-14.89746094h119.390625c8.2265625 0 14.89746094 6.67089844 14.89746094 14.89746094v390.68261719a14.89746094 14.89746094 0 0 1-14.89746094 14.89746093h-119.390625a14.89746094 14.89746094 0 0 1-14.89746094-14.89746093V324.8984375zM235.59277344 113.40722656c0-8.2265625 6.67089844-14.89746094 14.89746094-14.89746094H295.7890625c8.2265625 0 14.89746094 6.67089844 14.89746094 14.89746094v804.04101563a14.89746094 14.89746094 0 0 1-14.89746094 14.89746094H250.49023437a14.89746094 14.89746094 0 0 1-14.89746093-14.89746094V113.40722656z" p-id="16376" fill="#e6e6e6"></path></svg>