<?xml version="1.0" standalone="no"?><!DOCTYPE svg PUBLIC "-//W3C//DTD SVG 1.1//EN" "http://www.w3.org/Graphics/SVG/1.1/DTD/svg11.dtd"><svg t="1695369899422" class="icon" viewBox="0 0 1024 1024" version="1.1" xmlns="http://www.w3.org/2000/svg" p-id="16857" xmlns:xlink="http://www.w3.org/1999/xlink"><path d="M384.75195313 324.92480469a14.89746094 14.89746094 0 0 0-14.89746094-14.89746094H250.46386719a14.89746094 14.89746094 0 0 0-14.89746094 14.89746094v390.68261719c0 8.2265625 6.67089844 14.89746094 14.89746094 14.89746093h119.390625a14.89746094 14.89746094 0 0 0 14.89746094-14.89746093V324.8984375z m238.22753906 0a14.89746094 14.89746094 0 0 0-14.89746094-14.89746094h-119.390625a14.89746094 14.89746094 0 0 0-14.89746094 14.89746094v390.68261719c0 8.2265625 6.67089844 14.89746094 14.89746094 14.89746093h119.390625a14.89746094 14.89746094 0 0 0 14.89746094-14.89746093V324.8984375zM788.40722656 113.40722656a14.89746094 14.89746094 0 0 0-14.89746094-14.89746094H728.2109375a14.89746094 14.89746094 0 0 0-14.89746094 14.89746094v804.04101563c0 8.2265625 6.67089844 14.89746094 14.89746094 14.89746094h45.29882813a14.89746094 14.89746094 0 0 0 14.89746093-14.89746094V113.40722656z" p-id="16858" fill="#e6e6e6"></path></svg>