<?xml version="1.0" standalone="no"?><!DOCTYPE svg PUBLIC "-//W3C//DTD SVG 1.1//EN" "http://www.w3.org/Graphics/SVG/1.1/DTD/svg11.dtd"><svg t="1695375579476" class="icon" viewBox="0 0 1024 1024" version="1.1" xmlns="http://www.w3.org/2000/svg" p-id="16238" xmlns:xlink="http://www.w3.org/1999/xlink"><path d="M319.203125 384.77832031l-0.02636719 0a15.02929688 15.02929688 0 0 1-15.02929687-15.02929687l-1e-8-120.8671875a15.02929688 15.02929688 0 0 1 15.02929688-15.02929688L714.57910156 233.85253906a15.02929688 15.02929688 0 0 1 15.02929688 15.02929688l0 120.86718749a15.02929688 15.02929688 0 0 1-15.02929688 15.02929688l-395.37597656 0z m0 241.07519532l-0.02636719 0a15.02929688 15.02929688 0 0 1-15.02929687-15.02929688l-1e-8-120.8671875a15.02929688 15.02929688 0 0 1 15.02929688-15.02929687L714.57910156 474.92773439a15.02929688 15.02929688 0 0 1 15.02929688 15.02929686l0 120.86718749a15.02929688 15.02929688 0 0 1-15.02929688 15.02929688l-395.37597656 1e-8z m-214.02246094 167.40527343l-0.02636718 0a15.02929688 15.02929688 0 0 1-15.02929688-15.02929687l0-45.90527344a15.02929688 15.02929688 0 0 1 15.02929688-15.02929687L918.81933595 717.29492188a15.02929688 15.02929688 0 0 1 15.02929686 15.02929687L933.8486328 778.22949219a15.02929688 15.02929688 0 0 1-15.02929686 15.02929687l-813.63867188 0z" p-id="16239" fill="#e6e6e6"></path></svg>