<?xml version="1.0" standalone="no"?><!DOCTYPE svg PUBLIC "-//W3C//DTD SVG 1.1//EN" "http://www.w3.org/Graphics/SVG/1.1/DTD/svg11.dtd"><svg t="1695202103642" class="icon" viewBox="0 0 1024 1024" version="1.1" xmlns="http://www.w3.org/2000/svg" p-id="16448" xmlns:xlink="http://www.w3.org/1999/xlink"><path d="M405.333333 138.666667h-170.666666c-29.44 0-53.333333 23.893333-53.333334 53.333333v341.333333c0 29.44 23.893333 53.333333 53.333334 53.333334h170.666666c29.44 0 53.333333-23.893333 53.333334-53.333334v-341.333333c0-29.44-23.893333-53.333333-53.333334-53.333333zM797.866667 138.666667h-187.733334c-24.746667 0-44.8 20.053333-44.8 44.8v358.4c0 24.746667 20.053333 44.8 44.8 44.8h187.733334c24.746667 0 44.8-20.053333 44.8-44.8V183.466667c0-24.746667-20.053333-44.8-44.8-44.8z m-19.2 63.957333v320.042667h-149.333334V202.624h149.333334zM268.8 736h614.4a12.8 12.8 0 0 1 12.8 12.8v38.4a12.8 12.8 0 0 1-12.8 12.8H268.8a12.8 12.8 0 0 1-12.8-12.8v-38.4a12.8 12.8 0 0 1 12.8-12.8z" fill="#e6e6e6" p-id="16449"></path><path d="M141.653333 757.76l136.533334-102.4a12.8 12.8 0 0 1 20.48 10.24v204.8a12.8 12.8 0 0 1-20.48 10.24l-136.533334-102.4a12.8 12.8 0 0 1 0-20.48z" fill="#e6e6e6" p-id="16450"></path></svg>