<?xml version="1.0" standalone="no"?><!DOCTYPE svg PUBLIC "-//W3C//DTD SVG 1.1//EN" "http://www.w3.org/Graphics/SVG/1.1/DTD/svg11.dtd"><svg t="1741922817205" class="icon" viewBox="0 0 1024 1024" version="1.1" xmlns="http://www.w3.org/2000/svg" p-id="2865" xmlns:xlink="http://www.w3.org/1999/xlink" width="1000" height="1000"><path d="M945.230769 78.769231h-78.769231v866.461538h78.769231zM472.615385 78.769231H393.846154v866.461538h78.769231z" fill="#E6E6E6" p-id="2866"></path><path d="M945.230769 551.384615H630.153846a78.769231 78.769231 0 0 0-78.769231 78.769231v78.769231a78.769231 78.769231 0 0 0 78.769231 78.769231h315.076923zM472.615385 551.384615H157.538462a78.769231 78.769231 0 0 0-78.769231 78.769231v78.769231a78.769231 78.769231 0 0 0 78.769231 78.769231h315.076923z m472.615384-315.076923H708.923077a78.769231 78.769231 0 0 0-78.769231 78.769231v78.769231a78.769231 78.769231 0 0 0 78.769231 78.769231h236.307692zM472.615385 236.307692H236.307692a78.769231 78.769231 0 0 0-78.76923 78.769231v78.769231a78.769231 78.769231 0 0 0 78.76923 78.769231h236.307693z" fill="#E6E6E6" p-id="2867"></path></svg>