<?xml version="1.0" standalone="no"?><!DOCTYPE svg PUBLIC "-//W3C//DTD SVG 1.1//EN" "http://www.w3.org/Graphics/SVG/1.1/DTD/svg11.dtd"><svg t="1695374484270" class="icon" viewBox="0 0 1024 1024" version="1.1" xmlns="http://www.w3.org/2000/svg" p-id="16178" xmlns:xlink="http://www.w3.org/1999/xlink"><path d="M853.333333 554.66666701a42.666667 42.666667 0 0 1-42.666666 42.666666l-213.333334-1e-8a42.666667 42.666667 0 0 1-42.666666-42.666666l0-85.333334a42.666667 42.666667 0 0 1 42.666666-42.666666L810.666667 426.66666699a42.666667 42.666667 0 0 1 42.666666 42.666666l0 85.33333402zM469.333333 298.666667a42.666667 42.666667 0 0 1-42.666666 42.666666l-213.333334 0a42.666667 42.666667 0 0 1-42.666666-42.666666L170.666667 213.333333a42.666667 42.666667 0 0 1 42.666666-42.666666l213.333334 1e-8a42.666667 42.666667 0 0 1 42.66666599 42.66666599l1e-8 85.333334zM469.33333299 810.666667a42.666667 42.666667 0 0 1-42.66666599 42.66666599l-213.333334 1e-8a42.666667 42.666667 0 0 1-42.666666-42.666666l0-85.333334a42.666667 42.666667 0 0 1 42.666666-42.666666l213.333334 0a42.666667 42.666667 0 0 1 42.666666 42.666666l-1e-8 85.333334zM469.333333 554.666667a42.666667 42.666667 0 0 1-42.666666 42.666666l-213.333334 1e-8a42.666667 42.666667 0 0 1-42.666666-42.666666l0-85.33333402a42.666667 42.666667 0 0 1 42.666666-42.666666l213.333334 1e-8a42.666667 42.666667 0 0 1 42.666666 42.666666l0 85.333334z m-64-21.333334l0-42.666666-170.666666 0 0 42.666666 170.666666 0zM853.333333 810.666667a42.666667 42.666667 0 0 1-42.666666 42.666666l-213.333334-1e-8a42.666667 42.666667 0 0 1-42.66666599-42.66666599l-1e-8-85.333334a42.666667 42.666667 0 0 1 42.666666-42.666666L810.666667 682.666667a42.666667 42.666667 0 0 1 42.666666 42.666666l0 85.333334z m-64-21.333334l0-42.666666-170.666666 0 0 42.666666 170.666666 0zM853.333333 298.666667a42.666667 42.666667 0 0 1-42.666666 42.666666l-213.333334 0a42.666667 42.666667 0 0 1-42.666666-42.666666L554.66666701 213.333333a42.666667 42.666667 0 0 1 42.66666599-42.66666599L810.666667 170.666667a42.666667 42.666667 0 0 1 42.666666 42.666666l0 85.333334z m-64-21.333334l0-42.666666-170.666666 0 0 42.666666 170.666666 0z" fill="#e6e6e6" p-id="16179"></path></svg>